# xmcd
# 
# Track frame offsets:
#     150
#     15180
#     34437
#     52125
#     66870
# 
# Disc length: 1003
# 
# Revision: 1
# Processed by: cddbd v1.5.2PL0 Copyright (c) Steve Scherf et al.
# Submitted via: fre:ac v1.0.17
# 
DISCID=3e03e905
DTITLE=古巨基 - 跳飛機
DYEAR=2000
DGENRE=Pop
TTITLE0=一光年
TTITLE1=跳飛機
TTITLE2=<1+1>
TTITLE3=喜歡...喜歡...喜歡我
TTITLE4=至NET小人類
EXTD=
EXTT0=
EXTT1=
EXTT2=
EXTT3=
EXTT4=
PLAYORDER=
